<svg width="35" height="35" viewBox="0 0 35 35" fill="none" xmlns="http://www.w3.org/2000/svg">
<path fill-rule="evenodd" clip-rule="evenodd" d="M35 0H0V35H35V0ZM19.761 8.44849C19.163 9.04648 19.163 10.016 19.761 10.614L25.3137 16.1667H5.53125C4.68556 16.1667 4 16.8522 4 17.6979C4 18.5436 4.68556 19.2292 5.53125 19.2292H25.3137L19.761 24.7818C19.163 25.3798 19.163 26.3494 19.761 26.9473C20.359 27.5453 21.3285 27.5453 21.9265 26.9473L30.0932 18.7807C30.6912 18.1827 30.6912 17.2132 30.0932 16.6152L21.9265 8.44849C21.3285 7.8505 20.359 7.8505 19.761 8.44849Z" fill="white"/>
</svg>
